<svg width="500" height="500" viewBox="0 0 500 500" fill="none" xmlns="http://www.w3.org/2000/svg">
<rect width="500" height="500" rx="74" fill="white"/>
<path d="M97.0476 318.301C102.915 310.599 112.638 311.008 117.749 319.153C128.612 336.464 142.019 351.431 158.596 363.424C179.132 378.283 201.916 387.828 227.022 391.652C245.075 394.402 263.073 394.001 280.991 390.468C305.63 385.609 327.851 375.419 347.608 359.945C362.144 348.56 373.972 334.735 383.679 319.064C388.669 311.008 399.655 310.621 404.392 318.411C406.591 322.026 406.762 325.924 404.887 329.744C395.342 349.196 382.155 365.905 366.174 380.415C346.275 398.482 323.299 411.14 297.5 418.634C285.676 422.068 273.611 424.2 261.292 424.844C213.03 427.367 171.14 411.902 135.148 380.009C119.357 366.017 106.741 349.505 97.0596 330.732C94.8982 326.541 94.8134 322.57 97.0476 318.301Z" fill="black"/>
<path d="M280.303 193.6C281.058 193.601 281.563 193.601 282.068 193.601C287.388 193.603 288.69 195.293 287.459 200.594C287.031 202.44 285.631 202.875 284.017 202.908C281.061 202.968 278.155 203.336 275.279 204.027C270.618 205.147 268.158 208.237 267.375 212.805C266.992 215.042 266.817 217.299 266.82 219.584C266.853 247.612 266.85 275.64 266.855 303.668C266.857 312.752 271.166 317.334 280.26 317.917C280.764 317.949 281.268 317.994 281.773 317.994C287.528 317.986 287.666 319.158 287.391 324.883C287.314 326.469 286.405 327.323 284.765 327.319C283.082 327.315 281.399 327.331 279.715 327.331C259.094 327.33 238.473 327.323 217.852 327.332C215.924 327.333 214.095 327.466 213.957 324.685C213.702 319.576 214.114 318.61 217.354 318.187C219.769 317.871 222.215 317.896 224.621 317.388C230.688 316.107 234.052 312.657 234.198 306.448C234.458 295.345 234.227 284.23 234.428 273.124C234.758 254.862 234.543 236.6 234.639 218.338C234.645 217.246 234.671 216.139 234.52 215.063C233.345 206.682 229.9 203.738 220.509 203.039C219.671 202.977 218.827 202.986 217.986 202.953C214.438 202.811 213.681 202.041 213.675 198.576C213.666 193.942 214.001 193.603 218.695 193.602C239.148 193.599 259.6 193.6 280.303 193.6Z" fill="black"/>
<path d="M84.8915 229.294C83.4676 224.663 85.0467 220.428 85.9246 216.203C92.2417 185.805 106.453 159.574 128.244 137.529C145.722 119.848 166.383 107.254 190.237 100.047C196.555 98.1381 202.119 101.157 203.633 107.145C204.92 112.237 202.07 117.374 196.842 119.072C181.887 123.933 168.131 131.102 155.775 140.798C134.166 157.755 118.725 179.148 109.995 205.295C107.671 212.254 105.991 219.346 104.799 226.574C103.915 231.929 100.836 235.147 96.1701 235.788C91.2528 236.462 87.3268 234.251 84.8915 229.294Z" fill="black"/>
<path d="M386.782 192.848C370.064 156.727 342.995 132.287 305.597 119.297C298.81 116.939 295.829 110.39 299.07 104.515C301.36 100.363 306.111 98.5041 311.019 99.9101C319.542 102.352 327.714 105.693 335.551 109.819C369.229 127.548 393.046 154.242 407.551 189.328C412.195 200.559 415.415 212.196 417.114 224.255C417.882 229.711 414.377 234.861 408.982 235.765C403.265 236.724 397.674 232.817 396.899 227.288C395.228 215.374 391.753 203.992 386.782 192.848Z" fill="black"/>
<circle cx="94.1446" cy="272.81" r="20.1446" fill="#2563EB"/>
<circle cx="405.855" cy="272.81" r="20.1446" fill="#2563EB"/>
<circle cx="251.06" cy="96.2651" r="22.2651" fill="#2563EB"/>
</svg>
